<svg viewBox="0 0 147 147" fill="none" xmlns="http://www.w3.org/2000/svg">
<path fill-rule="evenodd" clip-rule="evenodd" d="M91.0742 44.9361C93.9728 42.1508 93.6656 41.8436 96.6841 44.9361L110.428 58.656C113.325 61.5028 113.171 61.6564 110.428 64.256L75.2766 99.3505C73.7275 100.897 71.2158 100.897 69.6667 99.3505L62.9203 92.6161C62.6105 92.3541 62.309 92.0772 62.0167 91.7855L51.2716 81.0594C45.537 75.335 45.537 66.0538 51.2716 60.3294C57.0062 54.605 66.3038 54.605 72.0384 60.3294L73.844 62.1317C75.77 64.8099 76.4082 67.4534 76.4082 71.0018C76.4082 72.9365 76.071 74.7927 75.4522 76.5148C76.7652 74.1646 77.5133 71.457 77.5133 68.5749C77.5133 65.3708 77.0312 63.0741 75.4343 60.5535L91.0742 44.9361Z" fill="white"/>
<path fill-rule="evenodd" clip-rule="evenodd" d="M71.6829 0.413052C72.187 0.402796 72.6923 0.397644 73.1988 0.397644C73.7052 0.397644 74.2105 0.402795 74.7147 0.413052L74.4915 11.382C74.0617 11.3733 73.6308 11.3689 73.1988 11.3689C72.7667 11.3689 72.3358 11.3733 71.906 11.382L71.6829 0.413052ZM77.7332 0.535981C78.7426 0.597739 79.7466 0.67998 80.7449 0.782312L79.6262 11.6964C78.777 11.6093 77.9226 11.5393 77.0632 11.4868L77.7332 0.535981ZM65.6526 0.782316C66.6509 0.679983 67.655 0.597741 68.6643 0.535983L69.3343 11.4868C68.475 11.5393 67.6205 11.6093 66.7714 11.6964L65.6526 0.782316ZM83.7498 1.15316C84.752 1.29795 85.7478 1.46305 86.7367 1.64806L84.7192 12.4322C83.8792 12.2751 83.033 12.1348 82.1811 12.0117L83.7498 1.15316ZM59.6608 1.64807C60.6497 1.46306 61.6455 1.29795 62.6477 1.15316L64.2164 12.0117C63.3645 12.1348 62.5184 12.2751 61.6783 12.4322L59.6608 1.64807ZM89.7001 2.26646C90.6861 2.4937 91.6646 2.74087 92.635 3.00751L89.7282 13.5867C88.9043 13.3603 88.0735 13.1504 87.2362 12.9574L89.7001 2.26646ZM53.7626 3.00751C54.733 2.74088 55.7114 2.49371 56.6974 2.26646L59.1614 12.9574C58.3241 13.1504 57.4933 13.3603 56.6694 13.5867L53.7626 3.00751ZM95.5362 3.87004C96.4992 4.17832 97.4536 4.50599 98.3988 4.85258L94.6218 15.1532C93.8192 14.8589 93.009 14.5807 92.1913 14.319L95.5362 3.87004ZM47.9987 4.85258C48.944 4.506 49.8983 4.17833 50.8614 3.87004L54.2062 14.319C53.3886 14.5807 52.5783 14.8589 51.7758 15.1532L47.9987 4.85258ZM101.22 5.95416C102.154 6.34147 103.078 6.74752 103.992 7.17185L99.3716 17.1228C98.5953 16.7624 97.8104 16.4175 97.0173 16.0886L101.22 5.95416ZM42.4057 7.17186C43.3196 6.74753 44.2437 6.34147 45.1777 5.95417L49.3803 16.0886C48.5871 16.4175 47.8022 16.7624 47.0259 17.1228L42.4057 7.17186ZM106.71 8.50329C107.608 8.96635 108.495 9.44741 109.371 9.94597L103.942 19.4799C103.198 19.0562 102.444 18.6474 101.681 18.2539L106.71 8.50329ZM37.027 9.94597C37.9026 9.44741 38.7895 8.96635 39.6873 8.50329L44.7165 18.2539C43.9537 18.6474 43.2 19.0562 42.4559 19.4799L37.027 9.94597ZM31.8981 13.1542C32.7296 12.585 33.5735 12.0325 34.4292 11.4972L40.2476 20.7986C39.52 21.2537 38.8025 21.7235 38.0953 22.2075L31.8981 13.1542ZM111.968 11.4972C112.824 12.0325 113.668 12.585 114.499 13.1542L108.302 22.2075C107.595 21.7235 106.878 21.2537 106.15 20.7986L111.968 11.4972ZM27.0516 16.7738C27.8337 16.1379 28.6292 15.5178 29.4376 14.914L36.0026 23.7043C35.3149 24.2179 34.6382 24.7454 33.9728 25.2864L27.0516 16.7738ZM116.96 14.914C117.768 15.5178 118.564 16.1379 119.346 16.7738L112.425 25.2864C111.759 24.7454 111.083 24.2179 110.395 23.7043L116.96 14.914ZM22.5197 20.7788C23.247 20.0807 23.9887 19.3976 24.7444 18.7298L32.0097 26.9507C31.3667 27.519 30.7355 28.1003 30.1166 28.6943L22.5197 20.7788ZM121.653 18.7298C122.409 19.3976 123.151 20.0807 123.878 20.7788L116.281 28.6943C115.662 28.1003 115.031 27.519 114.388 26.9507L121.653 18.7298ZM18.3321 25.142C18.9999 24.3864 19.6831 23.6447 20.3811 22.9174L28.2967 30.5142C27.7027 31.1332 27.1213 31.7643 26.5531 32.4073L18.3321 25.142ZM126.016 22.9174C126.714 23.6447 127.398 24.3864 128.065 25.142L119.844 32.4073C119.276 31.7643 118.695 31.1332 118.101 30.5142L126.016 22.9174ZM14.5164 29.8353C15.1202 29.0269 15.7402 28.2313 16.3761 27.4492L24.8888 34.3704C24.3478 35.0358 23.8203 35.7126 23.3067 36.4003L14.5164 29.8353ZM130.021 27.4493C130.657 28.2313 131.277 29.0269 131.881 29.8353L123.091 36.4003C122.577 35.7126 122.05 35.0358 121.509 34.3704L130.021 27.4493ZM11.0996 34.8269C11.6349 33.9711 12.1874 33.1273 12.7566 32.2958L21.8099 38.493C21.3258 39.2001 20.856 39.9177 20.4009 40.6453L11.0996 34.8269ZM133.641 32.2958C134.21 33.1273 134.763 33.9711 135.298 34.8269L125.997 40.6453C125.542 39.9177 125.072 39.2001 124.588 38.493L133.641 32.2958ZM8.10564 40.085C8.5687 39.1872 9.04976 38.3003 9.54832 37.4247L19.0823 42.8535C18.6585 43.5977 18.2497 44.3514 17.8563 45.1142L8.10564 40.085ZM136.849 37.4247C137.348 38.3003 137.829 39.1872 138.292 40.085L128.541 45.1142C128.148 44.3514 127.739 43.5977 127.315 42.8535L136.849 37.4247ZM139.623 42.8033C140.048 43.7172 140.454 44.6414 140.841 45.5754L130.707 49.778C130.378 48.9848 130.033 48.1999 129.672 47.4236L139.623 42.8033ZM5.55652 45.5754C5.94382 44.6414 6.34988 43.7172 6.77421 42.8033L16.7252 47.4236C16.3647 48.1999 16.0198 48.9848 15.6909 49.778L5.55652 45.5754ZM141.943 48.3964C142.289 49.3416 142.617 50.296 142.925 51.259L132.476 54.6039C132.215 53.7863 131.936 52.976 131.642 52.1734L141.943 48.3964ZM3.47239 51.259C3.78068 50.296 4.10834 49.3416 4.45493 48.3964L14.7555 52.1735C14.4613 52.976 14.1831 53.7863 13.9213 54.6039L3.47239 51.259ZM143.788 54.1602C144.054 55.1306 144.301 56.1091 144.529 57.0951L133.838 59.5591C133.645 58.7218 133.435 57.891 133.209 57.0671L143.788 54.1602ZM1.86881 57.0951C2.09606 56.1091 2.34322 55.1307 2.60986 54.1603L13.189 57.0671C12.9626 57.891 12.7528 58.7218 12.5598 59.5591L1.86881 57.0951ZM145.147 60.0585C145.332 61.0474 145.497 62.0432 145.642 63.0454L134.784 64.6141C134.66 63.7622 134.52 62.9161 134.363 62.076L145.147 60.0585ZM0.755515 63.0454C0.900301 62.0432 1.06541 61.0474 1.25042 60.0585L12.0346 62.076C11.8774 62.9161 11.7371 63.7622 11.614 64.6141L0.755515 63.0454ZM146.013 66.0503C146.115 67.0486 146.197 68.0527 146.259 69.062L135.308 69.732C135.256 68.8727 135.186 68.0182 135.099 67.169L146.013 66.0503ZM0.138336 69.062C0.200095 68.0527 0.282336 67.0486 0.384668 66.0503L11.2987 67.1691C11.2117 68.0182 11.1417 68.8727 11.0891 69.7321L0.138336 69.062ZM146.382 72.0805C146.392 72.5847 146.398 73.09 146.398 73.5965C146.398 74.1029 146.392 74.6082 146.382 75.1124L135.413 74.8892C135.422 74.4594 135.426 74.0285 135.426 73.5965C135.426 73.1644 135.422 72.7335 135.413 72.3037L146.382 72.0805ZM0 73.5965C0 73.09 0.00515139 72.5847 0.0154077 72.0806L10.9844 72.3037C10.9756 72.7335 10.9712 73.1644 10.9712 73.5965C10.9712 74.0285 10.9756 74.4594 10.9844 74.8892L0.0154084 75.1124C0.00515172 74.6082 0 74.1029 0 73.5965ZM146.259 78.1309C146.197 79.1403 146.115 80.1443 146.013 81.1426L135.099 80.0239C135.186 79.1747 135.256 78.3203 135.308 77.4609L146.259 78.1309ZM0.384671 81.1426C0.282339 80.1443 0.200097 79.1403 0.138338 78.131L11.0891 77.4609C11.1417 78.3203 11.2117 79.1747 11.2987 80.0239L0.384671 81.1426ZM145.642 84.1475C145.497 85.1497 145.332 86.1455 145.147 87.1345L134.363 85.1169C134.52 84.2769 134.66 83.4307 134.784 82.5788L145.642 84.1475ZM1.25042 87.1345C1.06541 86.1456 0.900305 85.1498 0.75552 84.1475L11.614 82.5789C11.7371 83.4307 11.8774 84.2769 12.0346 85.117L1.25042 87.1345ZM144.529 90.0979C144.301 91.0839 144.054 92.0623 143.788 93.0327L133.209 90.1259C133.435 89.302 133.645 88.4712 133.838 87.6339L144.529 90.0979ZM2.60987 93.0327C2.34323 92.0623 2.09607 91.0839 1.86882 90.0979L12.5598 87.6339C12.7528 88.4712 12.9626 89.302 13.189 90.1259L2.60987 93.0327ZM142.925 95.9339C142.617 96.8969 142.289 97.8513 141.943 98.7965L131.642 95.0195C131.936 94.2169 132.215 93.4067 132.476 92.589L142.925 95.9339ZM4.45494 98.7965C4.10835 97.8513 3.78068 96.897 3.4724 95.9339L13.9213 92.5891C14.1831 93.4067 14.4613 94.2169 14.7555 95.0195L4.45494 98.7965ZM140.841 101.618C140.454 102.552 140.048 103.476 139.623 104.39L129.672 99.7693C130.033 98.993 130.378 98.2081 130.707 97.415L140.841 101.618ZM6.77421 104.39C6.34988 103.476 5.94383 102.552 5.55652 101.618L15.6909 97.415C16.0199 98.2081 16.3647 98.993 16.7252 99.7693L6.77421 104.39ZM9.54832 109.768C9.04976 108.893 8.5687 108.006 8.10564 107.108L17.8563 102.079C18.2497 102.842 18.6585 103.595 19.0823 104.339L9.54832 109.768ZM138.292 107.108C137.829 108.006 137.348 108.893 136.849 109.768L127.315 104.339C127.739 103.595 128.148 102.842 128.541 102.079L138.292 107.108ZM12.7566 114.897C12.1874 114.066 11.6349 113.222 11.0996 112.366L20.4009 106.548C20.856 107.275 21.3258 107.993 21.8099 108.7L12.7566 114.897ZM135.298 112.366C134.763 113.222 134.21 114.066 133.641 114.897L124.588 108.7C125.072 107.993 125.542 107.275 125.997 106.548L135.298 112.366ZM16.3761 119.744C15.7402 118.962 15.1201 118.166 14.5164 117.358L23.3066 110.793C23.8203 111.48 24.3478 112.157 24.8888 112.823L16.3761 119.744ZM131.881 117.358C131.277 118.166 130.657 118.962 130.021 119.744L121.509 112.823C122.05 112.157 122.577 111.48 123.091 110.793L131.881 117.358ZM20.3811 124.276C19.6831 123.548 18.9999 122.807 18.3321 122.051L26.5531 114.786C27.1213 115.429 27.7027 116.06 28.2967 116.679L20.3811 124.276ZM128.065 122.051C127.398 122.807 126.714 123.548 126.016 124.276L118.101 116.679C118.695 116.06 119.276 115.429 119.844 114.786L128.065 122.051ZM24.7444 128.463C23.9887 127.795 23.247 127.112 22.5197 126.414L30.1166 118.499C30.7355 119.093 31.3667 119.674 32.0097 120.242L24.7444 128.463ZM123.878 126.414C123.151 127.112 122.409 127.795 121.653 128.463L114.388 120.242C115.031 119.674 115.662 119.093 116.281 118.499L123.878 126.414ZM29.4376 132.279C28.6292 131.675 27.8337 131.055 27.0516 130.419L33.9728 121.907C34.6382 122.448 35.3149 122.975 36.0026 123.489L29.4376 132.279ZM119.346 130.419C118.564 131.055 117.768 131.675 116.96 132.279L110.395 123.489C111.083 122.975 111.759 122.448 112.425 121.907L119.346 130.419ZM34.4292 135.696C33.5735 135.16 32.7296 134.608 31.8981 134.039L38.0953 124.985C38.8025 125.469 39.52 125.939 40.2476 126.394L34.4292 135.696ZM114.499 134.039C113.668 134.608 112.824 135.16 111.968 135.696L106.15 126.394C106.878 125.939 107.595 125.469 108.302 124.985L114.499 134.039ZM39.6873 138.69C38.7895 138.227 37.9026 137.746 37.027 137.247L42.4559 127.713C43.2 128.137 43.9537 128.546 44.7165 128.939L39.6873 138.69ZM109.371 137.247C108.495 137.746 107.608 138.227 106.71 138.69L101.681 128.939C102.444 128.546 103.198 128.137 103.942 127.713L109.371 137.247ZM45.1777 141.239C44.2437 140.851 43.3196 140.445 42.4057 140.021L47.0259 130.07C47.8022 130.431 48.5872 130.775 49.3803 131.104L45.1777 141.239ZM103.992 140.021C103.078 140.445 102.154 140.851 101.22 141.239L97.0173 131.104C97.8104 130.775 98.5953 130.431 99.3716 130.07L103.992 140.021ZM50.8614 143.323C49.8983 143.015 48.944 142.687 47.9988 142.34L51.7758 132.04C52.5783 132.334 53.3886 132.612 54.2062 132.874L50.8614 143.323ZM98.3988 142.34C97.4536 142.687 96.4992 143.015 95.5362 143.323L92.1913 132.874C93.009 132.612 93.8192 132.334 94.6218 132.04L98.3988 142.34ZM56.6974 144.926C55.7114 144.699 54.733 144.452 53.7626 144.185L56.6694 133.606C57.4933 133.833 58.3241 134.043 59.1614 134.236L56.6974 144.926ZM92.635 144.185C91.6646 144.452 90.6862 144.699 89.7002 144.926L87.2362 134.236C88.0735 134.043 88.9043 133.833 89.7282 133.606L92.635 144.185ZM62.6478 146.04C61.6455 145.895 60.6497 145.73 59.6608 145.545L61.6783 134.761C62.5184 134.918 63.3645 135.058 64.2164 135.181L62.6478 146.04ZM86.7368 145.545C85.7479 145.73 84.7521 145.895 83.7498 146.04L82.1812 135.181C83.033 135.058 83.8792 134.918 84.7193 134.761L86.7368 145.545ZM68.6643 146.657C67.655 146.595 66.651 146.513 65.6526 146.411L66.7714 135.497C67.6205 135.584 68.475 135.654 69.3344 135.706L68.6643 146.657ZM80.7449 146.411C79.7466 146.513 78.7426 146.595 77.7333 146.657L77.0632 135.706C77.9226 135.654 78.777 135.584 79.6262 135.497L80.7449 146.411ZM73.1988 146.795C72.6923 146.795 72.187 146.79 71.6829 146.78L71.906 135.811C72.3358 135.82 72.7667 135.824 73.1988 135.824C73.6308 135.824 74.0618 135.82 74.4915 135.811L74.7147 146.78C74.2106 146.79 73.7052 146.795 73.1988 146.795Z" fill="white"/>
<path fill-rule="evenodd" clip-rule="evenodd" d="M73.1988 11.3689C38.8315 11.3689 10.9712 39.2291 10.9712 73.5965C10.9712 107.964 38.8315 135.824 73.1988 135.824C107.566 135.824 135.426 107.964 135.426 73.5965H146.398C146.398 114.023 113.625 146.795 73.1988 146.795C32.7722 146.795 0 114.023 0 73.5965C0 33.1699 32.7722 0.397644 73.1988 0.397644C82.1845 0.397644 90.804 2.01928 98.7722 4.99066L94.9388 15.2704C88.1784 12.7495 80.8561 11.3689 73.1988 11.3689Z" fill="white"/>
</svg>
